<?xml version="1.0" standalone="no"?><!DOCTYPE svg PUBLIC "-//W3C//DTD SVG 1.1//EN" "http://www.w3.org/Graphics/SVG/1.1/DTD/svg11.dtd"><svg t="1497196604672" class="icon" style="" viewBox="0 0 1344 1024" version="1.1" xmlns="http://www.w3.org/2000/svg" p-id="2388" xmlns:xlink="http://www.w3.org/1999/xlink" width="262.5" height="200"><defs><style type="text/css"></style></defs><path d="M1264 192l-240 0c-61.664 0-63.936-57.504-64-64l0-32c0-40.256-44.48-96-128-96l-319.008 0c-93.92 0-128 57.408-128 96l0 31.808c-0.032 2.624-1.536 64.192-64.992 64.192l-240 0c-44.128 0-80 35.904-80 80l0 576c0 44.096 35.872 80 80 80l192 0c8.832 0 16-7.168 16-16s-7.168-16-16-16l-192 0c-26.464 0-48-21.536-48-48l0-400 256 0c-20.608 49.28-32 103.328-32 160 0 229.376 186.624 416 416 416s416-186.624 416-416c0-56.672-11.488-110.72-32.096-160l256.096 0 0 400c0 26.464-21.536 48-48 48l-224 0c-8.832 0-16 7.168-16 16s7.168 16 16 16l224 0c44.128 0 80-35.904 80-80l0-576c0-44.096-35.872-80-80-80zM672 992c-211.744 0-384-172.256-384-384s172.256-384 384-384 384 172.256 384 384-172.256 384-384 384zM1048 416c-2.368 0-4.576 0.576-6.592 1.504-69.248-133.728-208.704-225.504-369.408-225.504s-300.16 91.776-369.408 225.504c-2.016-0.928-4.224-1.504-6.592-1.504l-264 0 0-144c0-26.464 21.536-48 48-48l240 0c75.776 0 96.608-62.656 96.992-96l0-32c0-25.728 25.568-64 96-64l319.008 0c67.008 0 96 42.368 96 64l0 32c0 33.216 20.064 96 96 96l240 0c26.464 0 48 21.536 48 48l0 144-264 0zM304 160c8.832 0 16-7.168 16-16l0-32c0-26.464-21.536-48-48-48l-128 0c-26.464 0-48 21.536-48 48l0 32c0 8.832 7.168 16 16 16s16-7.168 16-16l0-32c0-8.832 7.2-16 16-16l128 0c8.8 0 16 7.168 16 16l0 32c0 8.832 7.168 16 16 16zM672 320c-158.816 0-288 129.216-288 288s129.184 288 288 288 288-129.216 288-288-129.184-288-288-288zM672 864c-141.152 0-256-114.848-256-256s114.848-256 256-256 256 114.848 256 256-114.848 256-256 256z" p-id="2389" fill="#ffffff"></path></svg>