<?xml version="1.0" standalone="no"?><!DOCTYPE svg PUBLIC "-//W3C//DTD SVG 1.1//EN" "http://www.w3.org/Graphics/SVG/1.1/DTD/svg11.dtd"><svg t="1497937777704" class="icon" style="" viewBox="0 0 1344 1024" version="1.1" xmlns="http://www.w3.org/2000/svg" p-id="2667" xmlns:xlink="http://www.w3.org/1999/xlink" width="262.5" height="200"><defs><style type="text/css"></style></defs><path d="M1086.656 415.616c-13.664-211.584-160.8-415.616-430.656-415.616-246.816 0-437.152 183.456-447.232 428.288-135.04 42.016-208.768 186.528-208.768 291.712 0 161.952 134.592 304 288 304l768 0c155.104 0 288-167.168 288-304 0-165.344-135.136-294.656-257.344-304.384zM1056 992l-768 0c-136.384 0-256-127.104-256-272 0-97.632 85.568-272 256-272l48 0c8.832 0 16-7.168 16-16s-7.168-16-16-16l-48 0c-16.288 0-31.68 1.824-46.688 4.448 12.544-191.68 158.24-388.448 414.688-388.448 274.816 0 400 215.648 400 416l0 48c0 8.832 7.168 16 16 16s16-7.168 16-16l0-48c0-0.096 0-0.192 0-0.288 96.608 10.592 224 114.272 224 272.288 0 122.432-118.112 272-256 272z" p-id="2668"></path></svg>