<?xml version="1.0" standalone="no"?><!DOCTYPE svg PUBLIC "-//W3C//DTD SVG 1.1//EN" "http://www.w3.org/Graphics/SVG/1.1/DTD/svg11.dtd"><svg t="1495940756995" class="icon" style="" viewBox="0 0 1024 1024" version="1.1" xmlns="http://www.w3.org/2000/svg" p-id="1067" xmlns:xlink="http://www.w3.org/1999/xlink" width="200" height="200"><defs><style type="text/css"></style></defs><path d="M787.24096 331.84768C726.3232 223.90784 612.82816 157.2864 488.1408 157.2864a343.03488 343.03488 0 0 0-225.60256 84.608c-56.75008 49.5104-95.50848 116.06016-110.57152 189.18912C62.7456 456.82688 0 538.8032 0 633.28768c0 104.71936 77.80864 192.62464 178.65728 208.05632v2.48832H768.1536c141.43488 0 256.38912-114.95936 256.38912-256.39424 0.0768-134.92736-104.86272-245.79072-237.30176-255.5904z m-19.01568 453.18656H210.46784l-1.97632-0.14848c-82.48832-1.024-149.62176-68.8896-149.62176-151.52128 0-73.20064 52.14208-135.87456 124.02688-149.10976l20.76672-3.87584 3.072-20.9152c9.65632-66.98496 43.22304-128.4864 94.48448-173.31712A284.04736 284.04736 0 0 1 488.1408 216.0896c93.312 0 179.0208 45.04576 231.96672 119.63904-62.52544 12.13952-119.27552 47.17056-157.81376 99.01568a29.312 29.312 0 0 0 6.144 41.16992 29.49632 29.49632 0 0 0 41.16992-6.0672c37.7344-50.75456 95.58016-79.93344 158.6176-79.93344 108.89216 0 197.52448 88.56064 197.52448 197.52448s-88.63232 197.59616-197.52448 197.59616z" fill="#ffffff" p-id="1068"></path></svg>