<?xml version="1.0" standalone="no"?><!DOCTYPE svg PUBLIC "-//W3C//DTD SVG 1.1//EN" "http://www.w3.org/Graphics/SVG/1.1/DTD/svg11.dtd"><svg t="1488901471419" class="icon" style="" viewBox="0 0 1024 1024" version="1.1" xmlns="http://www.w3.org/2000/svg" p-id="1432" xmlns:xlink="http://www.w3.org/1999/xlink" width="200" height="200"><defs><style type="text/css"></style></defs><path d="M972.648448 248.758574h-40.932248V91.932806H771.680321v-40.932248h200.968127z" p-id="1433" fill="#707070"></path><path d="M924.667667 60.355623l29.270651 28.611641-280.459577 286.918685-29.269627-28.611641zM99.073436 258.429841h-40.932248V60.671825h200.968128v40.932247H99.073436z" p-id="1434" fill="#707070"></path><path d="M106.126063 70.040193l280.459576 286.918685-29.270651 28.611641L76.855412 98.651834zM975.898469 968.757838H774.929318v-40.932248h160.036903V771.000845h40.932248z" p-id="1435" fill="#707070"></path><path d="M676.726715 643.836631l280.458553 286.918685-29.27065 28.611641L647.457088 672.448272zM249.439072 975.21797H48.469921V777.459954h40.932248v156.825768h160.036903z" p-id="1436" fill="#707070"></path><path d="M347.654978 650.305973l29.27065 28.611641-280.458553 286.918685-29.27065-28.611641z" p-id="1437" fill="#707070"></path></svg>