<?xml version="1.0" standalone="no"?><!DOCTYPE svg PUBLIC "-//W3C//DTD SVG 1.1//EN" "http://www.w3.org/Graphics/SVG/1.1/DTD/svg11.dtd"><svg t="1497971004299" class="icon" style="" viewBox="0 0 1024 1024" version="1.1" xmlns="http://www.w3.org/2000/svg" p-id="2392" xmlns:xlink="http://www.w3.org/1999/xlink" width="200" height="200"><defs><style type="text/css"></style></defs><path d="M830.032 681.008c-9.776-9.792-25.6-9.792-35.344 0-9.744 9.728-9.744 25.6 0.032 35.328 75.504 75.536 117.056 175.904 117.056 282.688 0 13.808 11.184 24.992 25.008 24.992s24.976-11.168 24.976-24.992C961.744 878.896 914.976 765.936 830.032 681.008zM512.016 0c-165.344 0-299.84 134.496-299.84 299.824 0 118.048 68.736 220.08 168.144 268.96-69.648 21.216-133.424 59.312-186.336 112.224-84.944 84.944-131.712 197.888-131.712 318.016C62.272 1012.832 73.456 1024 87.248 1024c13.808 0 25.008-11.168 25.008-24.992 0-106.784 41.568-207.152 117.088-282.688 74.144-74.192 172.368-115.504 277.056-116.96 1.888 0.032 3.728 0.288 5.632 0.288 165.328 0 299.824-134.512 299.824-299.84C811.84 134.48 677.344 0 512.016 0zM514.672 549.536c-0.896-0.096-1.776-0.272-2.688-0.272-1.792 0-3.584 0.112-5.36 0.128-135.248-2.912-244.448-113.632-244.448-249.568 0-137.76 112.096-249.856 249.856-249.856s249.888 112.096 249.888 249.856C761.904 436.688 651.216 548.096 514.672 549.536z" p-id="2393" fill="#515151"></path></svg>